<svg width="27" height="27" viewBox="0 0 27 27" fill="none" xmlns="http://www.w3.org/2000/svg">
<path d="M13.5 0C10.83 0 8.21987 0.791761 5.99981 2.27516C3.77974 3.75856 2.04941 5.86697 1.02763 8.33377C0.00584929 10.8006 -0.261496 13.515 0.259405 16.1337C0.780305 18.7525 2.06606 21.1579 3.95406 23.0459C5.84207 24.9339 8.24754 26.2197 10.8663 26.7406C13.485 27.2615 16.1994 26.9942 18.6662 25.9724C21.133 24.9506 23.2414 23.2203 24.7248 21.0002C26.2082 18.7801 27 16.17 27 13.5C27 9.91957 25.5777 6.4858 23.0459 3.95406C20.5142 1.42232 17.0804 0 13.5 0ZM20.2689 12.1338C19.7428 12.9773 18.922 13.5951 17.9658 13.8672C17.7573 13.9352 17.5398 13.9716 17.3205 13.9752C17.1179 13.974 16.924 13.8927 16.7812 13.749C16.6384 13.6053 16.5582 13.411 16.5582 13.2084C16.5582 13.0058 16.6384 12.8114 16.7812 12.6678C16.924 12.5241 17.1179 12.4428 17.3205 12.4416C17.3789 12.4429 17.4368 12.4319 17.4906 12.4092C18.1047 12.2566 18.6341 11.8687 18.9648 11.3292C19.1572 11.0147 19.2581 10.6529 19.2564 10.2843C19.2564 9.072 18.1359 8.073 16.7697 8.073C16.2969 8.07399 15.8323 8.19574 15.4197 8.42669C15.0797 8.60576 14.7935 8.87232 14.5909 9.19886C14.3882 9.5254 14.2763 9.9001 14.2668 10.2843V16.7238C14.2601 17.3761 14.0788 18.0146 13.7416 18.573C13.4045 19.1314 12.9239 19.5893 12.3498 19.899C11.708 20.2599 10.9828 20.4461 10.2465 20.439C8.02169 20.439 6.1965 18.765 6.1965 16.6941C6.20044 16.0445 6.38053 15.4081 6.7176 14.8527C7.24369 14.0092 8.06455 13.3914 9.02069 13.1193C9.22944 13.0523 9.44681 13.0159 9.66601 13.0113C9.76708 13.0107 9.86728 13.0301 9.96083 13.0684C10.0544 13.1067 10.1394 13.163 10.2111 13.2343C10.2828 13.3056 10.3397 13.3903 10.3785 13.4836C10.4173 13.5769 10.4373 13.677 10.4373 13.7781C10.4373 13.8792 10.4173 13.9793 10.3785 14.0726C10.3397 14.1659 10.2828 14.2506 10.2111 14.3219C10.1394 14.3932 10.0544 14.4496 9.96083 14.4878C9.86728 14.5261 9.76708 14.5455 9.66601 14.5449C9.60765 14.5436 9.54968 14.5546 9.49591 14.5773C8.88711 14.7411 8.36139 15.1262 8.02172 15.6573C7.82936 15.9718 7.72838 16.3336 7.7301 16.7022C7.7301 17.9145 8.8506 18.9135 10.233 18.9135C10.7058 18.9125 11.1705 18.7908 11.583 18.5598C11.9226 18.3804 12.2081 18.1137 12.4103 17.7871C12.6125 17.4606 12.7239 17.0861 12.7332 16.7022V10.2924C12.7405 9.63962 12.9224 9.00067 13.26 8.44187C13.5975 7.88306 14.0785 7.42476 14.6529 7.11453C15.2831 6.73688 16.0054 6.54067 16.74 6.54752C18.9648 6.54752 20.79 8.22153 20.79 10.2924C20.7861 10.9421 20.606 11.5785 20.2689 12.1338V12.1338Z" fill="url(#paint0_linear_3037_1450)"/>
<defs>
<linearGradient id="paint0_linear_3037_1450" x1="8.21739" y1="2.93478" x2="25.2391" y2="27" gradientUnits="userSpaceOnUse">
<stop stop-color="#FF737C"/>
<stop offset="1" stop-color="#D7000D"/>
</linearGradient>
</defs>
</svg>
