<svg width="24" height="24" viewBox="0 0 24 24" fill="none" xmlns="http://www.w3.org/2000/svg">
<path d="M6.6959 4.22375C7.03196 4.22375 7.35208 4.28769 7.65619 4.41646C7.96033 4.54434 8.22375 4.71963 8.44795 4.94431C8.67214 5.16807 8.84795 5.43246 8.97579 5.73562C9.10412 6.03972 9.16804 6.36807 9.16804 6.71965C9.16804 7.05574 9.10412 7.37242 8.97579 7.66782C8.84795 7.96417 8.67214 8.22375 8.44795 8.44843C8.22375 8.67216 7.9603 8.84844 7.65619 8.97628C7.35208 9.10413 7.03196 9.16804 6.6959 9.16804C6.36029 9.16804 6.0402 9.10413 5.73609 8.97628C5.43197 8.84844 5.16805 8.67216 4.94383 8.44843C4.7201 8.22375 4.54383 7.96417 4.41599 7.66782C4.28813 7.37242 4.22418 7.05571 4.22418 6.71965C4.22418 6.36807 4.28813 6.03972 4.41599 5.73562C4.5438 5.43248 4.7201 5.16807 4.94383 4.94431C5.16805 4.71963 5.43197 4.54434 5.73609 4.41646C6.0402 4.28766 6.36029 4.22375 6.6959 4.22375ZM22.584 0C22.9681 0 23.3003 0.139469 23.5802 0.420349C23.86 0.700244 24 1.02373 24 1.39176V22.6082C24 22.9763 23.86 23.2998 23.5802 23.5797C23.3003 23.8596 22.968 24 22.584 24H1.39177C1.00823 24 0.679897 23.8596 0.407757 23.5797C0.136084 23.2998 0 22.9763 0 22.6082L2.04968e-07 1.39176C2.04968e-07 1.02373 0.136084 0.700244 0.407757 0.420349C0.679897 0.139469 1.00823 0 1.39177 0H22.584ZM21.864 3.55157C21.864 3.15156 21.7279 2.81161 21.4562 2.53172C21.184 2.25182 20.8479 2.11235 20.448 2.11235H3.52787C3.12787 2.11235 2.79228 2.25182 2.52011 2.53172C2.24794 2.81161 2.11186 3.15156 2.11186 3.55157V12C2.11186 12.4639 2.22809 12.9036 2.46004 13.3201C2.69201 13.7356 3.0242 14.1084 3.45617 14.4358C3.88809 14.7642 4.40821 15.0237 5.01597 15.2155C5.62422 15.4082 6.30409 15.5119 7.05615 15.5283C8.12784 15.5437 8.99611 15.3995 9.66006 15.0964C10.324 14.7922 10.9003 14.4077 11.3879 13.9438C11.876 13.4798 12.3322 12.9763 12.7559 12.4319C13.1801 11.8877 13.6843 11.3763 14.2683 10.8959C14.8518 10.4155 15.5719 10.0116 16.4281 9.68424C17.2844 9.35594 18.3922 9.18352 19.7521 9.16804C19.9922 9.15158 20.1322 9.14772 20.1719 9.15642C20.2121 9.16416 20.2639 9.16804 20.3279 9.16804C20.3923 9.16804 20.524 9.17189 20.724 9.17966C20.9239 9.18838 21.3042 9.18352 21.864 9.16804V3.55157Z" fill="url(#paint0_linear_3037_1451)"/>
<defs>
<linearGradient id="paint0_linear_3037_1451" x1="7.30435" y1="2.6087" x2="22.4348" y2="24" gradientUnits="userSpaceOnUse">
<stop stop-color="#FF737C"/>
<stop offset="1" stop-color="#D7000D"/>
</linearGradient>
</defs>
</svg>
