<svg width="30" height="21" viewBox="0 0 30 21" fill="none" xmlns="http://www.w3.org/2000/svg">
<path d="M6.45952e-05 1.48519V17.9071C-0.00124728 18.0046 0.0174349 18.1014 0.0550384 18.192C0.092642 18.2825 0.148426 18.365 0.219188 18.4347C0.289951 18.5044 0.374297 18.5599 0.467385 18.5981C0.560473 18.6363 0.660469 18.6564 0.761632 18.6572H0.884145C9.52297 17.5273 13.844 21 13.844 21V2.4555C8.66206 -1.28213 2.39072 0.218032 0.539784 0.789368C0.384981 0.83532 0.249307 0.927458 0.152312 1.05251C0.055316 1.17756 0.0020067 1.32906 6.45952e-05 1.48519ZM29.9992 5.88033V1.48519C30.0069 1.32292 29.9593 1.16269 29.8636 1.02897C29.7679 0.895253 29.6295 0.795404 29.4694 0.744683C27.6052 0.218032 21.3372 -1.28213 16.1519 2.4555V7.65498C18.5591 6.49635 24.0358 4.40571 29.9992 5.88033ZM16.1519 9.76797V20.9936C16.1519 20.9936 20.4763 17.5209 29.1118 18.6349C29.2219 18.6499 29.3341 18.642 29.4408 18.6118C29.5475 18.5815 29.6463 18.5295 29.7304 18.4593C29.8145 18.3891 29.882 18.3024 29.9283 18.2049C29.9747 18.1075 29.9989 18.0016 29.9992 17.8944V7.80819C23.559 6.008 17.4532 9.05619 16.1519 9.76797Z" fill="url(#paint0_linear_9156_13)"/>
<defs>
<linearGradient id="paint0_linear_9156_13" x1="9.13043" y1="2.28261" x2="20.2969" y2="24.8355" gradientUnits="userSpaceOnUse">
<stop stop-color="#FF737C"/>
<stop offset="1" stop-color="#D7000D"/>
</linearGradient>
</defs>
</svg>
